Coordinates
version=1
nRows=43
nColumns=12
inDegrees=yes

Units are S.I. units (second, meters, Newtons, ...)
Angles are in degrees

endheader
time	SC_y	SC_z	SC_x	AC_y	AC_z	AC_x	GH_y	GH_z	GH_yy	EL_x	PS_y
       0.0              -48.36          16.04          26.97          33.17          -1.42        -0.4729          131.8          45.04         -11.86          52.87          56.03
  0.001952              -48.36          16.04          26.97          33.16         -1.421         -0.475          131.8          45.03         -11.84          52.88          56.03
  0.003903              -48.36          16.04          26.98          33.16         -1.423        -0.4772          131.8          45.02         -11.81          52.89          56.03
  0.005855              -48.36          16.03          26.98          33.16         -1.425        -0.4796          131.7          45.02         -11.78           52.9          56.03
  0.007807              -48.36          16.03          26.99          33.16         -1.427        -0.4821          131.7          45.01         -11.74          52.92          56.03
  0.009758              -48.36          16.03          26.99          33.16         -1.429        -0.4848          131.6          45.01         -11.71          52.93          56.04
   0.01171              -48.36          16.03           27.0          33.16         -1.431        -0.4876          131.6           45.0         -11.67          52.94          56.04
   0.01366              -48.36          16.03          27.01          33.16         -1.434        -0.4907          131.5          44.99         -11.63          52.96          56.04
   0.01561              -48.36          16.03          27.02          33.16         -1.436         -0.494          131.5          44.98         -11.59          52.97          56.04
   0.01757              -48.36          16.03          27.03          33.16         -1.439        -0.4975          131.4          44.97         -11.54          52.99          56.05
   0.01952              -48.36          16.03          27.04          33.16         -1.442        -0.5012          131.4          44.96         -11.49          53.01          56.05
   0.02147              -48.36          16.02          27.05          33.16         -1.445        -0.5053          131.3          44.95         -11.44          53.02          56.05
   0.02342              -48.35          16.02          27.06          33.16         -1.449        -0.5097          131.2          44.94         -11.38          53.04          56.06
   0.02537              -48.35          16.02          27.07          33.16         -1.452        -0.5144          131.1          44.93         -11.32          53.07          56.06
   0.02732              -48.35          16.02          27.08          33.16         -1.456        -0.5195          131.1          44.92         -11.26          53.09          56.06
   0.02928              -48.35          16.02           27.1          33.15         -1.461        -0.5251          131.0          44.91         -11.18          53.12          56.07
   0.03123              -48.35          16.01          27.11          33.15         -1.466        -0.5311          130.9          44.89          -11.1          53.14          56.07
   0.03318              -48.35          16.01          27.13          33.15         -1.471        -0.5377          130.8          44.87         -11.02          53.17          56.08
   0.03513              -48.35          16.01          27.14          33.15         -1.476        -0.5448          130.6          44.86         -10.93          53.21          56.08
   0.03708              -48.35           16.0          27.16          33.15         -1.483        -0.5527          130.5          44.84         -10.82          53.24          56.09
   0.03903              -48.35           16.0          27.19          33.15         -1.489        -0.5613          130.4          44.82         -10.71          53.28           56.1
   0.04099              -48.35           16.0          27.21          33.15         -1.497        -0.5708          130.2          44.79         -10.59          53.33           56.1
   0.04294              -48.34          15.99          27.24          33.14         -1.505        -0.5813          130.0          44.77         -10.45          53.38          56.11
   0.04489              -48.34          15.99          27.26          33.14         -1.514        -0.5929          129.8          44.74          -10.3          53.43          56.12
   0.04684              -48.34          15.98           27.3          33.14         -1.524        -0.6058          129.6          44.71         -10.13          53.49          56.13
   0.04879              -48.34          15.97          27.33          33.14         -1.536        -0.6202          129.4          44.67         -9.941          53.56          56.14
   0.05074              -48.33          15.97          27.37          33.13         -1.548        -0.6363          129.1          44.63         -9.731          53.63          56.16
    0.0527              -48.33          15.96          27.42          33.13         -1.563        -0.6545          128.8          44.58         -9.494          53.72          56.17
   0.05465              -48.33          15.95          27.47          33.12         -1.579         -0.675          128.4          44.53         -9.226          53.81          56.19
    0.0566              -48.32          15.94          27.53          33.12         -1.597        -0.6982          128.0          44.48         -8.922          53.92          56.21
   0.05855              -48.32          15.93          27.59          33.11         -1.618        -0.7248          127.6          44.41         -8.575          54.05          56.23
    0.0605              -48.32          15.91          27.67          33.11         -1.642        -0.7553          127.1          44.33         -8.176          54.19          56.25
   0.06245              -48.31           15.9          27.76           33.1          -1.67        -0.7905          126.5          44.25         -7.716          54.35          56.28
   0.06441               -48.3          15.88          27.86          33.09         -1.702        -0.8314          125.8          44.15         -7.182          54.54          56.31
   0.06636               -48.3          15.86          27.98          33.08          -1.74        -0.8793          125.0          44.03         -6.557          54.76          56.35
   0.06831              -48.29          15.84          28.12          33.07         -1.784        -0.9358          124.0          43.89          -5.82          55.03           56.4
   0.07026              -48.28          15.81          28.29          33.06         -1.837         -1.003          122.9          43.72         -4.944          55.34          56.45
   0.07221              -48.26          15.77          28.49          33.04         -1.901         -1.083          121.5          43.52         -3.894          55.71          56.52
   0.07416              -48.25          15.73          28.73          33.02         -1.977          -1.18          119.9          43.28         -2.624          56.16           56.6
   0.07612              -48.23          15.68          29.03           33.0         -2.071         -1.299          117.9          42.98         -1.072          56.72          56.69
   0.07807               -48.2          15.61          29.39          32.97         -2.186         -1.446          115.4          42.62         0.8425           57.4          56.81
   0.08002              -48.18          15.53          29.85          32.93          -2.33         -1.629          112.3          42.17           3.23          58.25          56.96
   0.08197              -48.14          15.43          30.42          32.88         -2.512         -1.859          108.5           41.6          6.239          59.32          57.14
